<svg width="164" height="159" viewBox="0 0 164 159" fill="none" xmlns="http://www.w3.org/2000/svg">
<path d="M162.209 157.847C164.148 156.511 164.356 154.093 162.673 152.446C160.99 150.799 158.054 150.547 156.115 151.883C154.176 153.219 153.968 155.637 155.651 157.284C157.334 158.931 160.27 159.183 162.209 157.847ZM8.04722 6.98193C9.98628 5.64587 10.1939 3.22762 8.51088 1.58064C6.82789 -0.0663516 3.89166 -0.318398 1.9526 1.01767C0.0135482 2.35373 -0.194045 4.77197 1.48894 6.41896C3.17192 8.06594 6.10817 8.318 8.04722 6.98193ZM159.82 154.411L156.856 151.51L155.539 152.417L158.504 155.318L159.82 154.411ZM150.926 145.707L144.997 139.905L143.681 140.812L149.61 146.615L150.926 145.707ZM139.068 134.102L133.138 128.3L131.822 129.207L137.751 135.01L139.068 134.102ZM127.209 122.497L121.28 116.695L119.963 117.602L125.893 123.405L127.209 122.497ZM115.351 110.892L109.421 105.09L108.105 105.997L114.034 111.8L115.351 110.892ZM103.492 99.2874L97.5626 93.4849L96.246 94.3921L102.175 100.195L103.492 99.2874ZM91.6333 87.6824L85.704 81.8799L84.3874 82.7871L90.3167 88.5896L91.6333 87.6824ZM79.7747 76.0774L73.8454 70.275L72.5288 71.1821L78.4581 76.9846L79.7747 76.0774ZM67.916 64.4725L61.9867 58.67L60.6701 59.5771L66.5994 65.3796L67.916 64.4725ZM56.0574 52.8675L50.1281 47.065L48.8115 47.9721L54.7408 53.7747L56.0574 52.8675ZM44.1988 41.2625L38.2695 35.46L36.9529 36.3672L42.8822 42.1697L44.1988 41.2625ZM32.3402 29.6575L26.4109 23.855L25.0942 24.7622L31.0236 30.5647L32.3402 29.6575ZM20.4815 18.0525L14.5522 12.25L13.2356 13.1572L19.1649 18.9597L20.4815 18.0525ZM8.62291 6.44749L5.65821 3.5462L4.3416 4.45339L7.3063 7.35467L8.62291 6.44749Z" fill="black"/>
</svg>
