<svg width="63" height="63" viewBox="0 0 63 63" fill="none" xmlns="http://www.w3.org/2000/svg">
<path fill-rule="evenodd" clip-rule="evenodd" d="M53.6213 18.4166L53.2592 17.7699C52.7921 16.9879 52.1332 16.338 51.3451 15.8816L33.9886 5.87125C33.2027 5.41535 32.3106 5.17446 31.4019 5.17285H30.6518C29.7431 5.17446 28.8509 5.41535 28.0651 5.87125L10.7086 15.9075C9.92473 16.3609 9.27364 17.0119 8.8203 17.7958L8.45817 18.4424C8.00227 19.2284 7.76137 20.1205 7.75977 21.0291V41.0758C7.76137 41.9845 8.00227 42.8766 8.45817 43.6624L8.8203 44.3091C9.28536 45.0838 9.93383 45.7323 10.7086 46.1974L28.091 56.2078C28.8729 56.6731 29.7676 56.9147 30.6776 56.9062H31.4019C32.3106 56.9046 33.2027 56.6638 33.9886 56.2078L51.3451 46.1715C52.1366 45.7284 52.7902 45.0748 53.2333 44.2832L53.6213 43.6366C54.0717 42.8484 54.3122 41.9578 54.3197 41.0499V21.0032C54.3182 20.0947 54.0774 19.2025 53.6213 18.4166ZM30.6518 10.3462H31.4019L46.5597 19.0891L31.0398 28.039L15.5198 19.0891L30.6518 10.3462ZM33.6264 50.4395L48.7584 41.6966L49.1464 41.0499V23.564L33.6264 32.5398V50.4395Z" fill="white"/>
</svg>
