<svg width="224" height="36" viewBox="0 0 224 36" fill="none" xmlns="http://www.w3.org/2000/svg">
<path d="M0.163636 5.91818V2.41818H24.6V5.91818H14.3545V35H10.4091V5.91818H0.163636ZM27.6426 35V10.5636H31.2699V14.2545H31.5244C31.9699 13.0455 32.7759 12.0644 33.9426 11.3114C35.1093 10.5583 36.4244 10.1818 37.8881 10.1818C38.1638 10.1818 38.5085 10.1871 38.9222 10.1977C39.3358 10.2083 39.6487 10.2242 39.8608 10.2455V14.0636C39.7335 14.0318 39.4419 13.9841 38.9858 13.9205C38.5403 13.8462 38.0684 13.8091 37.5699 13.8091C36.382 13.8091 35.3214 14.0583 34.3881 14.5568C33.4653 15.0447 32.7335 15.7235 32.1926 16.5932C31.6623 17.4523 31.3972 18.4333 31.3972 19.5364V35H27.6426ZM51.5023 35.5727C49.9538 35.5727 48.5485 35.2811 47.2864 34.6977C46.0242 34.1038 45.022 33.25 44.2795 32.1364C43.5371 31.0121 43.1659 29.6545 43.1659 28.0636C43.1659 26.6636 43.4417 25.5288 43.9932 24.6591C44.5447 23.7788 45.2818 23.0894 46.2045 22.5909C47.1273 22.0924 48.1455 21.7212 49.2591 21.4773C50.3833 21.2227 51.5129 21.0212 52.6477 20.8727C54.1326 20.6818 55.3364 20.5386 56.2591 20.4432C57.1924 20.3371 57.8712 20.1621 58.2955 19.9182C58.7303 19.6742 58.9477 19.25 58.9477 18.6455V18.5182C58.9477 16.9485 58.5182 15.7288 57.6591 14.8591C56.8106 13.9894 55.522 13.5545 53.7932 13.5545C52.0008 13.5545 50.5955 13.947 49.5773 14.7318C48.5591 15.5167 47.8432 16.3545 47.4295 17.2455L43.8659 15.9727C44.5023 14.4879 45.3508 13.3318 46.4114 12.5045C47.4826 11.6667 48.6492 11.0833 49.9114 10.7545C51.1841 10.4152 52.4356 10.2455 53.6659 10.2455C54.4508 10.2455 55.3523 10.3409 56.3705 10.5318C57.3992 10.7121 58.3909 11.0886 59.3455 11.6614C60.3106 12.2341 61.1114 13.0985 61.7477 14.2545C62.3841 15.4106 62.7023 16.9591 62.7023 18.9V35H58.9477V31.6909H58.7568C58.5023 32.2212 58.078 32.7886 57.4841 33.3932C56.8902 33.9977 56.1 34.5121 55.1136 34.9364C54.1273 35.3606 52.9235 35.5727 51.5023 35.5727ZM52.075 32.2C53.5598 32.2 54.8114 31.9083 55.8295 31.325C56.8583 30.7417 57.6326 29.9886 58.1523 29.0659C58.6826 28.1432 58.9477 27.1727 58.9477 26.1545V22.7182C58.7886 22.9091 58.4386 23.0841 57.8977 23.2432C57.3674 23.3917 56.7523 23.5242 56.0523 23.6409C55.3629 23.747 54.6894 23.8424 54.0318 23.9273C53.3848 24.0015 52.8598 24.0652 52.4568 24.1182C51.4811 24.2455 50.5689 24.4523 49.7205 24.7386C48.8826 25.0144 48.2038 25.4333 47.6841 25.9955C47.175 26.547 46.9205 27.3 46.9205 28.2545C46.9205 29.5591 47.403 30.5455 48.3682 31.2136C49.3439 31.8712 50.5795 32.2 52.075 32.2ZM73.3097 20.3V35H69.5551V10.5636H73.1824V14.3818H73.5006C74.0733 13.1409 74.943 12.1439 76.1097 11.3909C77.2763 10.6273 78.7824 10.2455 80.6278 10.2455C82.2824 10.2455 83.7301 10.5848 84.971 11.2636C86.2119 11.9318 87.1771 12.95 87.8665 14.3182C88.5559 15.6758 88.9006 17.3939 88.9006 19.4727V35H85.146V19.7273C85.146 17.8076 84.6475 16.3121 83.6506 15.2409C82.6536 14.1591 81.2854 13.6182 79.546 13.6182C78.3475 13.6182 77.2763 13.878 76.3324 14.3977C75.399 14.9174 74.6619 15.6758 74.121 16.6727C73.5801 17.6697 73.3097 18.8788 73.3097 20.3ZM113.07 16.0364L109.698 16.9909C109.486 16.4288 109.173 15.8826 108.759 15.3523C108.356 14.8114 107.805 14.3659 107.105 14.0159C106.405 13.6659 105.508 13.4909 104.416 13.4909C102.92 13.4909 101.674 13.8356 100.677 14.525C99.6909 15.2038 99.1977 16.0682 99.1977 17.1182C99.1977 18.0515 99.5371 18.7886 100.216 19.3295C100.895 19.8705 101.955 20.3212 103.398 20.6818L107.025 21.5727C109.21 22.103 110.838 22.9144 111.909 24.0068C112.98 25.0886 113.516 26.4833 113.516 28.1909C113.516 29.5909 113.113 30.8424 112.307 31.9455C111.511 33.0485 110.398 33.9182 108.966 34.5545C107.534 35.1909 105.869 35.5091 103.97 35.5091C101.478 35.5091 99.4151 34.9682 97.7818 33.8864C96.1485 32.8045 95.1144 31.2242 94.6795 29.1455L98.2432 28.2545C98.5826 29.5697 99.2242 30.5561 100.168 31.2136C101.123 31.8712 102.369 32.2 103.907 32.2C105.657 32.2 107.046 31.8288 108.075 31.0864C109.114 30.3333 109.634 29.4318 109.634 28.3818C109.634 27.5333 109.337 26.8227 108.743 26.25C108.149 25.6667 107.237 25.2318 106.007 24.9455L101.934 23.9909C99.6962 23.4606 98.0523 22.6386 97.0023 21.525C95.9629 20.4008 95.4432 18.9955 95.4432 17.3091C95.4432 15.9303 95.8303 14.7106 96.6045 13.65C97.3894 12.5894 98.4553 11.7568 99.8023 11.1523C101.16 10.5477 102.698 10.2455 104.416 10.2455C106.834 10.2455 108.733 10.7758 110.111 11.8364C111.501 12.897 112.487 14.297 113.07 16.0364ZM118.563 35V2.41818H131.609C134.005 2.41818 136.005 2.77348 137.606 3.48409C139.208 4.1947 140.412 5.18106 141.218 6.44318C142.024 7.6947 142.427 9.13712 142.427 10.7705C142.427 12.0432 142.172 13.1621 141.663 14.1273C141.154 15.0818 140.454 15.8667 139.563 16.4818C138.683 17.0864 137.675 17.5159 136.54 17.7705V18.0886C137.781 18.1417 138.943 18.4917 140.024 19.1386C141.117 19.7856 142.002 20.6924 142.681 21.8591C143.36 23.0152 143.699 24.3939 143.699 25.9955C143.699 27.7242 143.27 29.2674 142.411 30.625C141.562 31.972 140.305 33.0379 138.64 33.8227C136.975 34.6076 134.923 35 132.484 35H118.563ZM125.452 29.3682H131.068C132.987 29.3682 134.387 29.0023 135.268 28.2705C136.148 27.528 136.588 26.5417 136.588 25.3114C136.588 24.4098 136.371 23.6144 135.936 22.925C135.501 22.2356 134.88 21.6947 134.074 21.3023C133.279 20.9098 132.33 20.7136 131.227 20.7136H125.452V29.3682ZM125.452 16.0523H130.559C131.502 16.0523 132.34 15.8879 133.072 15.5591C133.815 15.2197 134.398 14.7424 134.822 14.1273C135.257 13.5121 135.474 12.775 135.474 11.9159C135.474 10.7386 135.055 9.78939 134.218 9.06818C133.39 8.34697 132.213 7.98636 130.686 7.98636H125.452V16.0523ZM163.725 24.5955V10.5636H170.502V35H163.995V30.5614H163.741C163.189 31.9932 162.272 33.1439 160.989 34.0136C159.716 34.8833 158.162 35.3182 156.327 35.3182C154.694 35.3182 153.257 34.947 152.016 34.2045C150.775 33.4621 149.805 32.4068 149.105 31.0386C148.415 29.6705 148.065 28.0318 148.055 26.1227V10.5636H154.832V24.9136C154.842 26.3561 155.23 27.4962 155.993 28.3341C156.757 29.172 157.78 29.5909 159.064 29.5909C159.88 29.5909 160.644 29.4053 161.355 29.0341C162.065 28.6523 162.638 28.0902 163.073 27.3477C163.518 26.6053 163.736 25.6879 163.725 24.5955ZM175.923 35V10.5636H182.701V35H175.923ZM179.328 7.41364C178.32 7.41364 177.456 7.07954 176.735 6.41136C176.024 5.73257 175.669 4.92121 175.669 3.97727C175.669 3.04394 176.024 2.24318 176.735 1.575C177.456 0.896212 178.32 0.556817 179.328 0.556817C180.335 0.556817 181.195 0.896212 181.905 1.575C182.626 2.24318 182.987 3.04394 182.987 3.97727C182.987 4.92121 182.626 5.73257 181.905 6.41136C181.195 7.07954 180.335 7.41364 179.328 7.41364ZM194.907 2.41818V35H188.13V2.41818H194.907ZM209.34 35.3977C207.484 35.3977 205.803 34.9205 204.297 33.9659C202.802 33.0008 201.614 31.5848 200.734 29.7182C199.864 27.8409 199.429 25.5394 199.429 22.8136C199.429 20.0136 199.88 17.6856 200.781 15.8295C201.683 13.9629 202.881 12.5682 204.377 11.6455C205.883 10.7121 207.532 10.2455 209.324 10.2455C210.693 10.2455 211.833 10.4788 212.745 10.9455C213.668 11.4015 214.41 11.9742 214.972 12.6636C215.545 13.3424 215.98 14.0106 216.277 14.6682H216.484V2.41818H223.245V35H216.563V31.0864H216.277C215.959 31.7652 215.508 32.4386 214.924 33.1068C214.352 33.7644 213.604 34.3106 212.681 34.7455C211.769 35.1803 210.655 35.3977 209.34 35.3977ZM211.488 30.0045C212.58 30.0045 213.503 29.7076 214.256 29.1136C215.02 28.5091 215.603 27.6659 216.006 26.5841C216.42 25.5023 216.627 24.2348 216.627 22.7818C216.627 21.3288 216.425 20.0667 216.022 18.9955C215.619 17.9242 215.036 17.097 214.272 16.5136C213.509 15.9303 212.58 15.6386 211.488 15.6386C210.374 15.6386 209.436 15.9409 208.672 16.5455C207.909 17.15 207.33 17.9879 206.938 19.0591C206.546 20.1303 206.349 21.3712 206.349 22.7818C206.349 24.203 206.546 25.4598 206.938 26.5523C207.341 27.6341 207.919 28.4826 208.672 29.0977C209.436 29.7023 210.374 30.0045 211.488 30.0045Z" fill="white"/>
</svg>
